<svg width="32" height="32" viewBox="0 0 32 32" fill="none" xmlns="http://www.w3.org/2000/svg">
<g clip-path="url(#clip0_592_3585)">
<path d="M15.9992 0.699219C7.55922 0.699219 0.699219 7.55922 0.699219 15.9992C0.699219 24.4392 7.55922 31.2992 15.9992 31.2992C24.4392 31.2992 31.2992 24.4392 31.2992 15.9992C31.2992 7.55922 24.4392 0.699219 15.9992 0.699219ZM15.9992 28.6992C11.9792 28.6992 8.39922 26.8192 6.06922 23.8892C7.69081 21.7678 9.95243 20.225 12.5192 19.4892C11.594 18.9027 10.832 18.0919 10.304 17.1321C9.77605 16.1723 9.49921 15.0947 9.49922 13.9992C9.49922 12.2753 10.184 10.622 11.403 9.40302C12.622 8.18404 14.2753 7.49922 15.9992 7.49922C17.7231 7.49922 19.3764 8.18404 20.5954 9.40302C21.8144 10.622 22.4992 12.2753 22.4992 13.9992C22.5 15.0962 22.2235 16.1755 21.6956 17.1371C21.1676 18.0986 20.4052 18.9111 19.4792 19.4992C22.0463 20.2344 24.3081 21.7773 25.9292 23.8992C24.7429 25.396 23.2335 26.6052 21.5139 27.4364C19.7944 28.2676 17.9091 28.6993 15.9992 28.6992Z" fill="#5C5F62"/>
</g>
<defs>
<clipPath id="clip0_592_3585">
<rect width="32" height="32" fill="white"/>
</clipPath>
</defs>
</svg>
