<svg width="22" height="22" viewBox="0 0 22 22" fill="none" xmlns="http://www.w3.org/2000/svg">
<rect width="22" height="22" rx="11" fill="#5C4FFF"/>
<g clip-path="url(#clip0_700_3867)">
<path d="M13.7786 11.1387C13.4411 11.1387 13.1675 11.4123 13.1675 11.7498C13.1675 12.0873 13.4411 12.3609 13.7786 12.3609C14.1162 12.3609 14.3898 12.0873 14.3898 11.7498C14.3898 11.4123 14.1162 11.1387 13.7786 11.1387Z" fill="white"/>
<path d="M10.7231 11.7498C10.7231 11.4123 10.9967 11.1387 11.3342 11.1387C11.6717 11.1387 11.9453 11.4123 11.9453 11.7498C11.9453 12.0873 11.6717 12.3609 11.3342 12.3609C10.9967 12.3609 10.7231 12.0873 10.7231 11.7498Z" fill="white"/>
<path d="M8.88976 11.1387C8.55225 11.1387 8.27865 11.4123 8.27865 11.7498C8.27865 12.0873 8.55225 12.3609 8.88976 12.3609C9.22726 12.3609 9.50087 12.0873 9.50087 11.7498C9.50087 11.4123 9.22726 11.1387 8.88976 11.1387Z" fill="white"/>
<path d="M10.7231 14.1942C10.7231 13.8567 10.9967 13.5831 11.3342 13.5831C11.6717 13.5831 11.9453 13.8567 11.9453 14.1942C11.9453 14.5317 11.6717 14.8053 11.3342 14.8053C10.9967 14.8053 10.7231 14.5317 10.7231 14.1942Z" fill="white"/>
<path d="M8.88976 13.5831C8.55225 13.5831 8.27865 13.8567 8.27865 14.1942C8.27865 14.5317 8.55225 14.8053 8.88976 14.8053C9.22726 14.8053 9.50087 14.5317 9.50087 14.1942C9.50087 13.8567 9.22726 13.5831 8.88976 13.5831Z" fill="white"/>
<path fill-rule="evenodd" clip-rule="evenodd" d="M8.88976 4.26367C9.14289 4.26367 9.34809 4.46887 9.34809 4.72201V5.18034H13.3203V4.72201C13.3203 4.46887 13.5255 4.26367 13.7786 4.26367C14.0318 4.26367 14.237 4.46887 14.237 4.72201V5.18034H15.0009C16.4353 5.18034 17.5981 6.34315 17.5981 7.77756V14.8054C17.5981 16.2398 16.4353 17.4026 15.0009 17.4026H7.66753C6.23313 17.4026 5.07031 16.2398 5.07031 14.8054V7.77756C5.07031 6.34315 6.23313 5.18034 7.66753 5.18034H8.43142V4.72201C8.43142 4.46887 8.63663 4.26367 8.88976 4.26367ZM16.6814 7.77756V8.54145H5.98698V7.77756C5.98698 6.84941 6.73939 6.09701 7.66753 6.09701H8.43142V6.55534C8.43142 6.80847 8.63663 7.01367 8.88976 7.01367C9.14289 7.01367 9.34809 6.80847 9.34809 6.55534V6.09701H13.3203V6.55534C13.3203 6.80847 13.5255 7.01367 13.7786 7.01367C14.0318 7.01367 14.237 6.80847 14.237 6.55534V6.09701H15.0009C15.929 6.09701 16.6814 6.84942 16.6814 7.77756ZM16.6814 9.45812H5.98698V14.8054C5.98698 15.7335 6.73939 16.486 7.66753 16.486H15.0009C15.929 16.486 16.6814 15.7335 16.6814 14.8054V9.45812Z" fill="white"/>
</g>
<defs>
<clipPath id="clip0_700_3867">
<rect width="14.6667" height="14.6667" fill="white" transform="translate(4 3.5)"/>
</clipPath>
</defs>
</svg>
