<svg width="16" height="16" viewBox="0 0 16 16" fill="none" xmlns="http://www.w3.org/2000/svg">
<g clip-path="url(#clip0_580_10940)">
<path fill-rule="evenodd" clip-rule="evenodd" d="M5.83464 1.33301C5.83464 1.05687 5.61078 0.833008 5.33464 0.833008C5.05849 0.833008 4.83464 1.05687 4.83464 1.33301V1.83301H4.0013C2.4365 1.83301 1.16797 3.10153 1.16797 4.66634V12.3331C1.16797 13.8979 2.4365 15.1664 4.0013 15.1664H12.0013C13.5661 15.1664 14.8346 13.8979 14.8346 12.3331V4.66634C14.8346 3.10153 13.5661 1.83301 12.0013 1.83301H11.168V1.33301C11.168 1.05687 10.9441 0.833008 10.668 0.833008C10.3918 0.833008 10.168 1.05687 10.168 1.33301V1.83301H5.83464V1.33301ZM13.8346 5.49967V4.66634C13.8346 3.65382 13.0138 2.83301 12.0013 2.83301H11.168V3.33301C11.168 3.60915 10.9441 3.83301 10.668 3.83301C10.3918 3.83301 10.168 3.60915 10.168 3.33301V2.83301H5.83464V3.33301C5.83464 3.60915 5.61078 3.83301 5.33464 3.83301C5.05849 3.83301 4.83464 3.60915 4.83464 3.33301V2.83301H4.0013C2.98878 2.83301 2.16797 3.65382 2.16797 4.66634V5.49967H13.8346ZM2.16797 6.49967H13.8346V12.3331C13.8346 13.3456 13.0138 14.1664 12.0013 14.1664H4.0013C2.98878 14.1664 2.16797 13.3456 2.16797 12.3331V6.49967Z" fill="white"/>
</g>
<defs>
<clipPath id="clip0_580_10940">
<rect width="16" height="16" fill="white"/>
</clipPath>
</defs>
</svg>
