<svg width="15" height="7" viewBox="0 0 15 7" fill="none" xmlns="http://www.w3.org/2000/svg">
<path fill-rule="evenodd" clip-rule="evenodd" d="M7.00127 7.0003C6.76762 7.00075 6.54119 6.91938 6.36127 6.7703L0.361275 1.7703H0.361275C-0.0639842 1.41684 -0.122187 0.785557 0.231275 0.360298C0.584737 -0.0649607 1.21602 -0.123164 1.64127 0.230298V0.230298L7.00128 4.7103L12.3613 0.390298V0.390298C12.79 0.0421402 13.4198 0.107451 13.7679 0.536175C13.7691 0.537547 13.7702 0.538921 13.7713 0.540298C14.1386 0.952716 14.1021 1.58483 13.6896 1.95215C13.6708 1.96893 13.6513 1.98499 13.6313 2.00029L7.63128 6.83029C7.44619 6.95581 7.22438 7.01566 7.00128 7.00029L7.00127 7.0003Z" fill="#1D1D20"/>
</svg>
