<svg width="14" height="14" viewBox="0 0 14 14" fill="none" xmlns="http://www.w3.org/2000/svg">
<path d="M7.28199 9.88805L6.99916 9.60525L6.71633 9.88805L3.54562 13.0585C2.82634 13.7777 1.6604 13.7789 0.939899 13.0585C0.219425 12.3381 0.220642 11.1723 0.9399 10.4531L4.11061 7.28269L4.3935 6.99983L4.11061 6.71698L0.940235 3.5469C0.21976 2.8265 0.220977 1.66073 0.940235 0.941538C1.65951 0.222328 2.82546 0.221111 3.54596 0.941538L6.71633 4.11161L6.99916 4.39441L7.28199 4.11161L10.454 0.939864C11.1733 0.220654 12.3393 0.219437 13.0598 0.939864C13.7802 1.66027 13.779 2.82604 13.0598 3.54523L9.88771 6.71698L9.60483 6.99983L9.88771 7.28269L13.0601 10.4548C13.7806 11.1752 13.7794 12.3409 13.0601 13.0601C12.3408 13.7793 11.1749 13.7806 10.4544 13.0601L7.28199 9.88805Z" fill="#5C5F62" stroke="#EDEDED" stroke-width="0.8"/>
</svg>
