<svg width="108" height="108" viewBox="0 0 108 108" fill="none" xmlns="http://www.w3.org/2000/svg">
<g clip-path="url(#clip0_583_15095)">
<path d="M59.6796 38.7522H36.4037C35.8942 38.7538 35.391 38.6349 34.9324 38.4046C34.4739 38.1742 34.072 37.8386 33.7575 37.423C33.4373 37.0036 33.2136 36.514 33.1035 35.9914C32.9934 35.4689 32.9998 34.9272 33.1222 34.4076C35.2674 25.095 35.2674 15.3899 33.1221 6.07738C32.9998 5.55779 32.9934 5.01613 33.1035 4.49362C33.2136 3.97111 33.4373 3.48151 33.7574 3.06207C34.072 2.64653 34.4738 2.31082 34.9324 2.0805C35.3909 1.85018 35.8941 1.7313 36.4037 1.73293H59.6796C60.4832 1.73532 61.2599 2.03328 61.8714 2.57374C62.4829 3.1142 62.8894 3.86206 63.0185 4.68413C64.5504 14.9957 64.5504 25.4894 63.0185 35.801C62.8894 36.623 62.4829 37.3709 61.8714 37.9114C61.2599 38.4518 60.4832 38.7498 59.6796 38.7522Z" fill="#E6E6E6"/>
<path d="M36.4035 3.54786C36.1588 3.54701 35.9171 3.60402 35.6968 3.71454C35.4766 3.82507 35.2836 3.98621 35.1324 4.1857C34.9768 4.39009 34.8682 4.62857 34.815 4.883C34.7617 5.13744 34.765 5.40112 34.8249 5.65399C37.0343 15.2448 37.0343 25.2399 34.825 34.8307C34.7651 35.0835 34.7617 35.3472 34.815 35.6015C34.8682 35.8559 34.9768 36.0944 35.1324 36.2987L35.1325 36.2989C35.2836 36.4984 35.4766 36.6596 35.6968 36.7701C35.9171 36.8807 36.1588 36.9377 36.4035 36.9368H59.6794C60.0653 36.937 60.4388 36.7951 60.7332 36.5366C61.0277 36.278 61.224 35.9195 61.2873 35.525C62.792 25.3962 62.792 15.0885 61.2873 4.95972C61.224 4.56515 61.0277 4.20667 60.7332 3.94811C60.4388 3.68956 60.0653 3.54772 59.6794 3.54786L36.4035 3.54786Z" fill="white"/>
<path d="M54.6003 12.2759H42.386C41.9217 12.2754 41.4766 12.084 41.1483 11.7437C40.8199 11.4035 40.6353 10.9421 40.6348 10.4609V9.75158C40.6353 9.27036 40.8199 8.809 41.1483 8.46872C41.4766 8.12845 41.9217 7.93705 42.386 7.93652H54.6003C55.0646 7.93705 55.5097 8.12845 55.8381 8.46872C56.1664 8.809 56.351 9.27036 56.3516 9.75158V10.4609C56.351 10.9421 56.1664 11.4035 55.8381 11.7437C55.5097 12.084 55.0646 12.2754 54.6003 12.2759Z" fill="#E6E6E6"/>
<path d="M54.6003 21.2383H42.386C41.9217 21.2378 41.4766 21.0464 41.1483 20.7061C40.8199 20.3659 40.6353 19.9045 40.6348 19.4233V18.714C40.6353 18.2328 40.8199 17.7714 41.1483 17.4311C41.4766 17.0908 41.9217 16.8995 42.386 16.8989H54.6003C55.0646 16.8995 55.5097 17.0908 55.8381 17.4311C56.1664 17.7714 56.351 18.2328 56.3516 18.714V19.4233C56.351 19.9045 56.1664 20.3659 55.8381 20.7061C55.5097 21.0464 55.0646 21.2378 54.6003 21.2383Z" fill="#E6E6E6"/>
<path d="M54.6003 30.2007H42.386C41.9217 30.2002 41.4766 30.0088 41.1483 29.6685C40.8199 29.3283 40.6353 28.8669 40.6348 28.3857V27.6764C40.6353 27.1952 40.8199 26.7338 41.1483 26.3935C41.4766 26.0532 41.9217 25.8619 42.386 25.8613H54.6003C55.0646 25.8619 55.5097 26.0532 55.8381 26.3935C56.1664 26.7338 56.351 27.1952 56.3516 27.6764V28.3857C56.351 28.8669 56.1664 29.3283 55.8381 29.6685C55.5097 30.0088 55.0646 30.2002 54.6003 30.2007Z" fill="#E6E6E6"/>
<path d="M103.463 61.7439H80.1869C79.6774 61.7455 79.1742 61.6266 78.7156 61.3963C78.2571 61.1659 77.8552 60.8302 77.5407 60.4147C77.2205 59.9953 76.9968 59.5057 76.8867 58.9831C76.7766 58.4606 76.783 57.9189 76.9054 57.3993C79.0506 48.0867 79.0506 38.3816 76.9053 29.0691C76.783 28.5495 76.7766 28.0078 76.8867 27.4853C76.9968 26.9628 77.2205 26.4732 77.5406 26.0538C77.8552 25.6382 78.257 25.3025 78.7156 25.0722C79.1741 24.8419 79.6773 24.723 80.1869 24.7246H103.463C104.266 24.727 105.043 25.025 105.655 25.5654C106.266 26.1059 106.673 26.8538 106.802 27.6758C108.334 37.9874 108.334 48.4811 106.802 58.7927C106.673 59.6147 106.266 60.3626 105.655 60.9031C105.043 61.4435 104.266 61.7415 103.463 61.7439Z" fill="#E6E6E6"/>
<path d="M80.1886 26.5396C79.9439 26.5387 79.7023 26.5957 79.482 26.7062C79.2617 26.8168 79.0687 26.9779 78.9176 27.1774C78.762 27.3818 78.6534 27.6203 78.6001 27.8747C78.5468 28.1291 78.5502 28.3928 78.61 28.6457C80.8194 38.2365 80.8195 48.2316 78.6102 57.8224C78.5503 58.0752 78.5469 58.3389 78.6001 58.5932C78.6534 58.8476 78.7619 59.0861 78.9175 59.2904L78.9177 59.2906C79.0687 59.4901 79.2618 59.6513 79.482 59.7618C79.7022 59.8724 79.9439 59.9294 80.1886 59.9285H103.465C103.85 59.9287 104.224 59.7868 104.518 59.5283C104.813 59.2697 105.009 58.9113 105.072 58.5167C106.577 48.3879 106.577 38.0802 105.072 27.9514C105.009 27.5569 104.813 27.1984 104.518 26.9398C104.224 26.6813 103.85 26.5394 103.465 26.5396L80.1886 26.5396Z" fill="white"/>
<path d="M57.0522 87.9116H33.7763C33.2446 87.9133 32.7197 87.7892 32.2412 87.5489C31.7628 87.3086 31.3436 86.9584 31.0155 86.5249C30.6816 86.0875 30.4483 85.5769 30.3335 85.032C30.2186 84.4871 30.2253 83.9223 30.3529 83.3805C32.4927 74.0911 32.4927 64.4102 30.3527 55.1209C30.2252 54.5791 30.2186 54.0142 30.3335 53.4694C30.4483 52.9245 30.6815 52.414 31.0154 51.9766C31.3436 51.5431 31.7628 51.1929 32.2412 50.9525C32.7196 50.7122 33.2446 50.5882 33.7763 50.5899H57.0522C57.8906 50.5925 58.7009 50.9034 59.3388 51.4674C59.9767 52.0313 60.4007 52.8116 60.5353 53.6693C62.0695 63.9961 62.0695 74.5054 60.5353 84.8322C60.4007 85.6899 59.9767 86.4702 59.3388 87.0341C58.7009 87.5981 57.8906 87.909 57.0522 87.9116Z" fill="#F2F2F2"/>
<path d="M98.3835 39.8052H86.1692C85.7049 39.8047 85.2598 39.6133 84.9315 39.273C84.6032 38.9328 84.4185 38.4714 84.418 37.9902V37.2809C84.4185 36.7997 84.6032 36.3383 84.9315 35.998C85.2598 35.6577 85.7049 35.4663 86.1692 35.4658H98.3835C98.8478 35.4663 99.2929 35.6577 99.6213 35.998C99.9496 36.3383 100.134 36.7997 100.135 37.2809V37.9902C100.134 38.4714 99.9496 38.9328 99.6213 39.273C99.2929 39.6133 98.8478 39.8047 98.3835 39.8052Z" fill="#E6E6E6"/>
<path d="M98.3835 48.7676H86.1692C85.7049 48.7671 85.2598 48.5757 84.9315 48.2354C84.6031 47.8952 84.4185 47.4338 84.418 46.9526V46.2433C84.4185 45.7621 84.6031 45.3007 84.9315 44.9604C85.2598 44.6201 85.7049 44.4287 86.1692 44.4282H98.3835C98.8478 44.4287 99.2929 44.6201 99.6213 44.9604C99.9496 45.3007 100.134 45.7621 100.135 46.2433V46.9526C100.134 47.4338 99.9496 47.8952 99.6213 48.2354C99.2929 48.5757 98.8478 48.7671 98.3835 48.7676Z" fill="#E6E6E6"/>
<path d="M45.4791 76.0839C49.1869 76.0839 52.1927 72.9687 52.1927 69.126C52.1927 65.2832 49.1869 62.168 45.4791 62.168C41.7714 62.168 38.7656 65.2832 38.7656 69.126C38.7656 72.9687 41.7714 76.0839 45.4791 76.0839Z" fill="white"/>
<path d="M48.6899 68.2184H46.3547V65.7982C46.3547 65.5575 46.2625 65.3266 46.0983 65.1564C45.934 64.9862 45.7113 64.8906 45.4791 64.8906C45.2468 64.8906 45.0241 64.9862 44.8599 65.1564C44.6956 65.3266 44.6034 65.5575 44.6034 65.7982V68.2184H42.2683C42.036 68.2184 41.8133 68.314 41.6491 68.4842C41.4848 68.6544 41.3926 68.8852 41.3926 69.1259C41.3926 69.3666 41.4848 69.5975 41.6491 69.7677C41.8133 69.9379 42.036 70.0335 42.2683 70.0335H44.6034V72.4536C44.6034 72.6943 44.6956 72.9252 44.8599 73.0954C45.0241 73.2656 45.2468 73.3612 45.4791 73.3612C45.7113 73.3612 45.934 73.2656 46.0983 73.0954C46.2625 72.9252 46.3547 72.6943 46.3547 72.4536V70.0335H48.6899C48.9221 70.0335 49.1449 69.9379 49.3091 69.7677C49.4733 69.5975 49.5656 69.3666 49.5656 69.1259C49.5656 68.8852 49.4733 68.6544 49.3091 68.4842C49.1449 68.314 48.9221 68.2184 48.6899 68.2184Z" fill="#E6E6E6"/>
<path d="M53.9441 5.14286H41.6846C41.3364 5.14245 41.0025 4.99889 40.7563 4.74368C40.51 4.48847 40.3715 4.14244 40.3711 3.78151V1.36134C40.3715 1.00042 40.51 0.654391 40.7563 0.399178C41.0025 0.143964 41.3364 0.000406757 41.6846 0H53.9441C54.2923 0.000406757 54.6262 0.143964 54.8724 0.399178C55.1187 0.654391 55.2572 1.00042 55.2576 1.36134V3.78151C55.2572 4.14244 55.1187 4.48847 54.8724 4.74368C54.6262 4.99889 54.2923 5.14245 53.9441 5.14286Z" fill="#CCCCCC"/>
<path d="M98.3132 28.4368H86.0537C85.7055 28.4364 85.3716 28.2928 85.1254 28.0376C84.8791 27.7824 84.7406 27.4364 84.7402 27.0755V24.6553C84.7406 24.2944 84.8791 23.9483 85.1254 23.6931C85.3716 23.4379 85.7055 23.2944 86.0537 23.2939H98.3132C98.6615 23.2944 98.9953 23.4379 99.2416 23.6931C99.4878 23.9483 99.6263 24.2944 99.6267 24.6553V27.0755C99.6263 27.4364 99.4878 27.7824 99.2416 28.0376C98.9953 28.2928 98.6615 28.4364 98.3132 28.4368Z" fill="#CCCCCC"/>
<path d="M23.6659 107.692L2.17146 98.4363C1.7003 98.2351 1.27963 97.9253 0.941437 97.5302C0.603248 97.1352 0.356456 96.6654 0.219841 96.1566C0.0793884 95.6419 0.0540956 95.1008 0.145879 94.5745C0.237662 94.0481 0.444103 93.5504 0.749492 93.1193C6.17805 85.3725 9.77087 76.4102 11.2373 66.9573C11.3167 66.4289 11.5114 65.9261 11.8065 65.4874C12.1016 65.0487 12.4894 64.6855 12.9403 64.4254C13.3846 64.1668 13.8799 64.0165 14.3887 63.9862C14.8974 63.9559 15.4061 64.0462 15.8761 64.2503L37.3705 73.5061C38.1118 73.8279 38.7188 74.4119 39.0833 75.1542C39.4479 75.8964 39.5465 76.7487 39.3614 77.5592C36.9587 87.6907 33.0738 97.3813 27.8418 106.294C27.4182 107.002 26.766 107.531 26.0012 107.787C25.2365 108.043 24.4089 108.009 23.6659 107.692Z" fill="#E6E6E6"/>
<path d="M15.2038 65.9267C14.9781 65.8286 14.7338 65.7851 14.4895 65.7996C14.2452 65.8141 14.0073 65.8861 13.7939 66.0103C13.5745 66.1371 13.386 66.3142 13.2425 66.5279C13.0991 66.7417 13.0047 66.9866 12.9663 67.2439C11.4561 76.9792 7.75587 86.2094 2.1651 94.1876C2.01622 94.3972 1.91545 94.6393 1.87046 94.8954C1.82547 95.1515 1.83744 95.4149 1.90547 95.6655L1.90555 95.6657C1.9712 95.91 2.08977 96.1356 2.25223 96.3253C2.41469 96.5149 2.61676 96.6637 2.84307 96.7602L24.3375 106.016C24.6939 106.17 25.0912 106.187 25.4589 106.065C25.8265 105.944 26.1406 105.691 26.3451 105.352C31.4843 96.5964 35.3002 87.0776 37.6604 77.1257C37.7481 76.7362 37.6995 76.327 37.5233 75.9712C37.347 75.6153 37.0547 75.3358 36.6982 75.1825L15.2038 65.9267Z" fill="white"/>
<path d="M26.6492 86.5305L15.3698 81.6734C14.9412 81.4883 14.601 81.1345 14.4237 80.6898C14.2465 80.245 14.2468 79.7455 14.4245 79.3009L14.687 78.6459C14.8657 78.2017 15.207 77.8491 15.6362 77.6654C16.0653 77.4817 16.5473 77.482 16.9762 77.6661L28.2556 82.5232C28.6842 82.7083 29.0244 83.0621 29.2017 83.5069C29.3789 83.9517 29.3786 84.4512 29.2009 84.8957L28.9383 85.5508C28.7597 85.9949 28.4184 86.3476 27.9892 86.5312C27.5601 86.7149 27.0781 86.7146 26.6492 86.5305Z" fill="#6C63FF"/>
<path d="M23.3308 94.8069L12.0514 89.9498C11.6228 89.7647 11.2826 89.4109 11.1054 88.9661C10.9282 88.5213 10.9284 88.0218 11.1061 87.5773L11.3687 86.9222C11.5473 86.4781 11.8886 86.1254 12.3178 85.9418C12.747 85.7581 13.2289 85.7584 13.6579 85.9425L24.9373 90.7996C25.3659 90.9847 25.7061 91.3385 25.8833 91.7832C26.0605 92.228 26.0603 92.7275 25.8826 93.1721L25.62 93.8271C25.4414 94.2713 25.1001 94.6239 24.6709 94.8076C24.2417 94.9913 23.7598 94.991 23.3308 94.8069Z" fill="#6C63FF"/>
<path d="M31.1691 74.899C31.0003 74.8988 30.8331 74.8649 30.6767 74.799L19.311 70.0365C18.9883 69.9008 18.7307 69.638 18.5947 69.3058C18.4587 68.9735 18.4554 68.599 18.5855 68.2642L19.4608 66.0204C19.5914 65.6857 19.845 65.4185 20.1657 65.2775C20.4864 65.1365 20.848 65.1334 21.1709 65.2687L32.5366 70.0312C32.8593 70.1668 33.1169 70.4296 33.2529 70.7618C33.3889 71.0941 33.3922 71.4687 33.2621 71.8034L32.3867 74.0472C32.2884 74.2985 32.1201 74.5137 31.9032 74.6654C31.6863 74.8171 31.4308 74.8984 31.1691 74.899Z" fill="#CCCCCC"/>
</g>
<defs>
<clipPath id="clip0_583_15095">
<rect width="108" height="108" fill="white"/>
</clipPath>
</defs>
</svg>
