<svg width="22" height="16" viewBox="0 0 22 16" fill="none" xmlns="http://www.w3.org/2000/svg">
<path fill-rule="evenodd" clip-rule="evenodd" d="M11 0C15.2909 0 18.8627 2.4287 21.6646 7.15399L21.8844 7.53293L21.9302 7.63283L21.9591 7.71602L21.9736 7.77062L21.988 7.853L21.999 7.95346L21.9982 8.0639L21.9849 8.17441C21.9784 8.21115 21.9698 8.24773 21.9591 8.28398L21.9203 8.39157L21.8844 8.46707L21.8682 8.49616C19.1039 13.3334 15.5685 15.8773 11.3127 15.9957L11 16C6.6044 16 2.96348 13.4514 0.131768 8.49616C-0.0439228 8.18872 -0.0439228 7.81128 0.131768 7.50384C2.96348 2.54862 6.6044 0 11 0ZM11 2C7.59033 2 4.69918 3.89478 2.27859 7.80591L2.161 8L2.27859 8.19409C4.63002 11.9935 7.42551 13.8901 10.709 13.9954L11 14C14.4097 14 17.3008 12.1052 19.7214 8.19409L19.838 8L19.7214 7.80591C17.37 4.00652 14.5745 2.10992 11.291 2.00464L11 2ZM11 5C9.34315 5 8 6.34315 8 8C8 9.65685 9.34315 11 11 11C12.6569 11 14 9.65685 14 8C14 6.34315 12.6569 5 11 5ZM11 7C11.5523 7 12 7.44772 12 8C12 8.55228 11.5523 9 11 9C10.4477 9 10 8.55228 10 8C10 7.44772 10.4477 7 11 7Z" fill="#9E9E9E"/>
</svg>
