<svg width="33" height="32" viewBox="0 0 33 32" fill="none" xmlns="http://www.w3.org/2000/svg">
<g clip-path="url(#clip0_95_3737)">
<path d="M26.4502 0H6.4502C3.13649 0 0.450195 2.68629 0.450195 6V26C0.450195 29.3137 3.13649 32 6.4502 32H26.4502C29.7639 32 32.4502 29.3137 32.4502 26V6C32.4502 2.68629 29.7639 0 26.4502 0Z" fill="white"/>
<path fill-rule="evenodd" clip-rule="evenodd" d="M26.0493 16.2273C26.0493 15.5181 25.9857 14.8362 25.8675 14.1816H16.4482V18.0502H21.8307C21.5988 19.3004 20.8942 20.3596 19.835 21.0687V23.5781H23.0672C24.9583 21.837 26.0493 19.2731 26.0493 16.2273Z" fill="#4285F4"/>
<path fill-rule="evenodd" clip-rule="evenodd" d="M16.4501 26.0008C19.1504 26.0008 21.4143 25.1053 23.069 23.5778L19.8368 21.0684C18.9413 21.6685 17.7957 22.0231 16.4501 22.0231C13.8452 22.0231 11.6404 20.2638 10.854 17.8999H7.5127V20.4911C9.15834 23.7597 12.5405 26.0008 16.4501 26.0008Z" fill="#34A853"/>
<path fill-rule="evenodd" clip-rule="evenodd" d="M10.8533 17.9C10.6533 17.2999 10.5396 16.6589 10.5396 15.9998C10.5396 15.3406 10.6533 14.6996 10.8533 14.0995V11.5083H7.51199C6.83464 12.8585 6.44824 14.3859 6.44824 15.9998C6.44824 17.6136 6.83464 19.141 7.51199 20.4912L10.8533 17.9Z" fill="#FBBC05"/>
<path fill-rule="evenodd" clip-rule="evenodd" d="M16.4501 9.97674C17.9184 9.97674 19.2368 10.4813 20.2732 11.4723L23.1417 8.60386C21.4097 6.99004 19.1458 5.99902 16.4501 5.99902C12.5405 5.99902 9.15834 8.24018 7.5127 11.5087L10.854 14.0999C11.6404 11.736 13.8452 9.97674 16.4501 9.97674Z" fill="#EA4335"/>
</g>
<defs>
<clipPath id="clip0_95_3737">
<rect width="32" height="32" fill="white" transform="translate(0.450195)"/>
</clipPath>
</defs>
</svg>
