<svg width="18" height="18" viewBox="0 0 18 18" fill="none" xmlns="http://www.w3.org/2000/svg">
<path fill-rule="evenodd" clip-rule="evenodd" d="M16 9C16 8.44772 16.4477 8 17 8C17.5523 8 18 8.44772 18 9V15C18 16.6569 16.6569 18 15 18H3C1.34315 18 0 16.6569 0 15V3C0 1.34315 1.34315 0 3 0H9C9.55229 0 10 0.447717 10 1C10 1.55229 9.55229 2 9 2H3C2.44772 2 2 2.44772 2 3V15C2 15.5523 2.44772 16 3 16H15C15.5523 16 16 15.5523 16 15V9ZM14.5819 2H13.0019C12.4496 2 12.0019 1.55228 12.0019 1C12.0019 0.447715 12.4496 0 13.0019 0H17.0019C17.5542 0 18.0019 0.447715 18.0019 1V5C18.0019 5.55229 17.5542 6 17.0019 6C16.4496 6 16.0019 5.55229 16.0019 5V3.42L9.71189 9.7L9.70609 9.7058C9.31397 10.0947 8.68081 10.0921 8.29189 9.7L8.28609 9.6942C7.89717 9.30208 7.89977 8.66892 8.29189 8.28L14.5819 2Z" fill="#3D53F5"/>
</svg>
