<svg width="18" height="21" viewBox="0 0 18 21" fill="none" xmlns="http://www.w3.org/2000/svg">
<path fill-rule="evenodd" clip-rule="evenodd" d="M2.63609 2.63647C-0.878612 6.15112 -0.87871 11.8495 2.63587 15.3643L6.87998 19.6074C8.05158 20.7778 9.94942 20.7778 11.1208 19.6077L15.3641 15.3643C18.8787 11.8495 18.8786 6.15112 15.3639 2.63647C11.8492 -0.878173 6.1508 -0.878173 2.63609 2.63647ZM13.9497 4.0507C16.6834 6.78431 16.6834 11.2164 13.9499 13.9501L9.70689 18.1931C9.31681 18.5828 8.68419 18.5828 8.29375 18.1927L4.05002 13.95C1.31656 11.2164 1.31664 6.78431 4.05029 4.0507C6.78396 1.31709 11.216 1.31709 13.9497 4.0507ZM9 5.0002C6.79086 5.0002 5 6.79106 5 9.0002C5 11.2093 6.79086 13.0002 9 13.0002C11.2091 13.0002 13 11.2093 13 9.0002C13 6.79106 11.2091 5.0002 9 5.0002ZM9 7.0002C10.1046 7.0002 11 7.89563 11 9.0002C11 10.1048 10.1046 11.0002 9 11.0002C7.89543 11.0002 7 10.1048 7 9.0002C7 7.89563 7.89543 7.0002 9 7.0002Z" fill="#9E9E9E"/>
</svg>
