<svg width="16" height="20" viewBox="0 0 16 20" fill="none" xmlns="http://www.w3.org/2000/svg">
<path fill-rule="evenodd" clip-rule="evenodd" d="M12 5.99986H13C14.6568 5.99986 16 7.34301 16 8.99986V16.9999C16 18.6567 14.6568 19.9999 13 19.9999H3C1.34315 19.9999 0 18.6567 0 16.9999V8.99986C0 7.34301 1.34315 5.99986 3 5.99986H4V4.10986C4 1.90072 5.79086 0.109863 8 0.109863C10.2091 0.109863 12 1.90072 12 4.10986V5.99986ZM8 1.99986C6.86609 2.03256 5.972 2.97582 6 4.10986V5.99986H10V4.10986C10.028 2.97583 9.13391 2.03256 8 1.99986ZM14 16.9999C14 17.5521 13.5523 17.9999 13 17.9999H3C2.44772 17.9999 2 17.5521 2 16.9999V8.99986C2 8.44758 2.44772 7.99986 3 7.99986H13C13.5523 7.99986 14 8.44758 14 8.99986V16.9999ZM8 9.99986C6.34315 9.99986 5 11.343 5 12.9999C5 14.6567 6.34315 15.9999 8 15.9999C9.65685 15.9999 11 14.6567 11 12.9999C11 11.343 9.65685 9.99986 8 9.99986ZM8 13.9999C7.44771 13.9999 7 13.5521 7 12.9999C7 12.4476 7.44771 11.9999 8 11.9999C8.55229 11.9999 9 12.4476 9 12.9999C9 13.5521 8.55229 13.9999 8 13.9999Z" fill="#BDBDBD"/>
</svg>
