<svg width="109" height="25" viewBox="0 0 109 25" fill="none" xmlns="http://www.w3.org/2000/svg">
<path d="M5.12194 0.00146484V15.4924L0 19.4945V0.00146484H5.12194Z" fill="#040035"/>
<path d="M15.8305 19.4941V24.6161H4.013L0 19.4941H15.8305Z" fill="#040035"/>
<path d="M23.4646 24.9637C22.2873 24.9637 21.2366 24.757 20.3158 24.3443C19.3941 23.9317 18.6667 23.3193 18.1336 22.5065C17.6013 21.6928 17.334 20.6771 17.334 19.4594C17.334 18.4336 17.522 17.5726 17.8989 16.8755C18.2751 16.1777 18.788 15.6174 19.4376 15.1915C20.0865 14.7672 20.8255 14.447 21.6547 14.2302C22.4839 14.0134 23.355 13.8619 24.2689 13.7733C25.3421 13.6614 26.2078 13.5549 26.8653 13.4554C27.5219 13.3552 27.9983 13.2044 28.2951 13.0047C28.5912 12.8042 28.7404 12.5074 28.7404 12.1149V12.0434C28.7404 11.2826 28.5019 10.6936 28.0255 10.2771C27.5483 9.86052 26.8738 9.65148 26.0003 9.65148C25.0787 9.65148 24.3451 9.85431 23.8011 10.2576C23.2556 10.6625 22.895 11.1692 22.7194 11.7792L17.9844 11.3945C18.2246 10.2732 18.697 9.301 19.4019 8.48037C20.1067 7.65897 21.0183 7.0264 22.1358 6.58111C23.2532 6.13583 24.5502 5.91357 26.0236 5.91357C27.0494 5.91357 28.0333 6.0348 28.9743 6.27493C29.9154 6.51506 30.7531 6.88729 31.486 7.39242C32.2196 7.89754 32.7985 8.5441 33.2228 9.33286C33.6479 10.1224 33.86 11.0658 33.86 12.1639V24.6163H29.0046V22.0565H28.8601C28.564 22.6331 28.1669 23.1406 27.6703 23.5765C27.173 24.0141 26.5762 24.3544 25.8791 24.5984C25.182 24.8425 24.3769 24.9645 23.4631 24.9645L23.4646 24.9637ZM24.9302 21.4302C25.6833 21.4302 26.3492 21.2794 26.9259 20.9794C27.5025 20.6795 27.9548 20.2723 28.2835 19.7594C28.6122 19.2473 28.7769 18.6652 28.7769 18.0163V16.0572C28.6161 16.1613 28.3977 16.2562 28.1211 16.3401C27.8452 16.4248 27.5343 16.5009 27.1893 16.5685C26.845 16.6362 26.5 16.6968 26.1558 16.7488C25.8115 16.8009 25.4991 16.8475 25.2186 16.8879C24.6178 16.9758 24.0933 17.1164 23.6441 17.3084C23.195 17.5003 22.8468 17.7591 22.5981 18.0831C22.3502 18.408 22.2259 18.8105 22.2259 19.2915C22.2259 19.9886 22.48 20.5194 22.989 20.8846C23.498 21.2491 24.1446 21.4309 24.9295 21.4309L24.9302 21.4302Z" fill="#040035"/>
<path d="M41.2676 13.9429V24.6158H36.1465V0H41.1223V9.41159H41.3391C41.7557 8.32131 42.4279 7.46571 43.3589 6.84557C44.2883 6.22466 45.4539 5.91304 46.8559 5.91304C48.1381 5.91304 49.2571 6.19202 50.2153 6.74921C51.1727 7.3064 51.918 8.10294 52.4503 9.14116C52.9842 10.1786 53.246 11.4189 53.2383 12.8612V24.6166H48.1187V13.7751C48.1264 12.6382 47.8397 11.7515 47.2592 11.1189C46.6779 10.4856 45.8666 10.1701 44.8253 10.1701C44.1282 10.1701 43.5127 10.3185 42.9804 10.6153C42.4481 10.9114 42.0315 11.3419 41.7308 11.9069C41.4293 12.4719 41.2762 13.1503 41.2684 13.9437L41.2676 13.9429Z" fill="#040035"/>
<path d="M62.3875 24.9157C60.9848 24.9157 59.7165 24.5536 58.5827 23.8278C57.4481 23.1027 56.5514 22.0342 55.8908 20.6191C55.2295 19.2055 54.8984 17.4687 54.8984 15.4086C54.8984 13.3484 55.2388 11.5323 55.9203 10.1265C56.6019 8.72074 57.5088 7.66698 58.6426 6.96603C59.7756 6.26507 61.0205 5.91382 62.3742 5.91382C63.4078 5.91382 64.2712 6.08789 64.9644 6.43681C65.6575 6.78574 66.2186 7.21859 66.6468 7.73537C67.075 8.25215 67.4022 8.7596 67.6267 9.2554H67.7829V0H72.8909V24.6158H67.8428V21.6589H67.626C67.3858 22.1718 67.047 22.6792 66.6095 23.1789C66.1735 23.6801 65.6078 24.0943 64.9154 24.4231C64.2222 24.751 63.3791 24.915 62.3859 24.915L62.3875 24.9157ZM64.0101 20.8414C64.8354 20.8414 65.534 20.6152 66.1075 20.1622C66.6794 19.7099 67.1208 19.0742 67.4301 18.2567C67.7386 17.4392 67.8925 16.4825 67.8925 15.3845C67.8925 14.2864 67.7402 13.3337 67.4356 12.5232C67.1302 11.715 66.6903 11.0894 66.1129 10.6488C65.5363 10.2089 64.8346 9.98821 64.0101 9.98821C63.1856 9.98821 62.459 10.2167 61.8823 10.6736C61.3057 11.1298 60.8682 11.7624 60.5721 12.5721C60.276 13.3811 60.1284 14.3198 60.1284 15.3853C60.1284 16.4507 60.2784 17.4065 60.5783 18.2279C60.8799 19.0493 61.3158 19.6897 61.8885 20.1505C62.4613 20.6113 63.1685 20.8414 64.0101 20.8414Z" fill="#040035"/>
<path d="M80.658 24.9637C79.4807 24.9637 78.43 24.757 77.5091 24.3443C76.5875 23.9317 75.8601 23.3193 75.327 22.5065C74.7947 21.6928 74.5273 20.6771 74.5273 19.4594C74.5273 18.4336 74.7154 17.5726 75.0923 16.8755C75.4684 16.1777 75.9813 15.6174 76.631 15.1915C77.2799 14.7672 78.0189 14.447 78.8481 14.2302C79.6773 14.0134 80.5484 13.8619 81.4623 13.7733C82.5355 13.6614 83.4012 13.5549 84.0586 13.4554C84.7153 13.3552 85.1916 13.2044 85.4885 13.0047C85.7846 12.8042 85.9338 12.5074 85.9338 12.1149V12.0434C85.9338 11.2826 85.6952 10.6936 85.2188 10.2771C84.7417 9.86052 84.0672 9.65148 83.1937 9.65148C82.272 9.65148 81.5385 9.85431 80.9945 10.2576C80.4489 10.6625 80.0884 11.1692 79.9127 11.7792L75.1778 11.3945C75.4179 10.2732 75.8904 9.301 76.5952 8.48037C77.3001 7.65897 78.2116 7.0264 79.3291 6.58111C80.4466 6.13583 81.7436 5.91357 83.217 5.91357C84.2428 5.91357 85.2266 6.0348 86.1677 6.27493C87.1088 6.51506 87.9465 6.88729 88.6793 7.39242C89.4129 7.89754 89.9919 8.5441 90.4162 9.33286C90.8412 10.1224 91.0534 11.0658 91.0534 12.1639V24.6163H86.198V22.0565H86.0535C85.7574 22.6331 85.3603 23.1406 84.8637 23.5765C84.3664 24.0141 83.7695 24.3544 83.0725 24.5984C82.3754 24.8425 81.5703 24.9645 80.6564 24.9645L80.658 24.9637ZM82.1244 21.4302C82.8774 21.4302 83.5434 21.2794 84.12 20.9794C84.6966 20.6795 85.1489 20.2723 85.4776 19.7594C85.8063 19.2473 85.9711 18.6652 85.9711 18.0163V16.0572C85.8102 16.1613 85.5919 16.2562 85.3152 16.3401C85.0393 16.4248 84.7285 16.5009 84.3835 16.5685C84.0392 16.6362 83.6942 16.6968 83.3499 16.7488C83.0056 16.8009 82.6932 16.8475 82.4127 16.8879C81.812 16.9758 81.2874 17.1164 80.8383 17.3084C80.3891 17.5003 80.0409 17.7591 79.7923 18.0831C79.5444 18.408 79.42 18.8105 79.42 19.2915C79.42 19.9886 79.6742 20.5194 80.1832 20.8846C80.6922 21.2491 81.3387 21.4309 82.1236 21.4309L82.1244 21.4302Z" fill="#040035"/>
<path d="M98.6052 24.9637C97.4279 24.9637 96.3773 24.757 95.4564 24.3443C94.5347 23.9317 93.8073 23.3193 93.2743 22.5065C92.7419 21.6928 92.4746 20.6771 92.4746 19.4594C92.4746 18.4336 92.6627 17.5726 93.0396 16.8755C93.4157 16.1777 93.9286 15.6174 94.5782 15.1915C95.2271 14.7672 95.9662 14.447 96.7953 14.2302C97.6245 14.0134 98.4957 13.8619 99.4096 13.7733C100.483 13.6614 101.348 13.5549 102.006 13.4554C102.663 13.3552 103.139 13.2044 103.436 13.0047C103.732 12.8042 103.881 12.5074 103.881 12.1149V12.0434C103.881 11.2826 103.642 10.6936 103.166 10.2771C102.689 9.86052 102.014 9.65148 101.141 9.65148C100.219 9.65148 99.4857 9.85431 98.9417 10.2576C98.3962 10.6625 98.0356 11.1692 97.86 11.7792L93.1251 11.3945C93.3652 10.2732 93.8377 9.301 94.5425 8.48037C95.2473 7.65974 96.1589 7.0264 97.2764 6.58111C98.3939 6.13583 99.6909 5.91357 101.164 5.91357C102.19 5.91357 103.174 6.0348 104.115 6.27493C105.056 6.51506 105.894 6.88729 106.627 7.39242C107.36 7.89754 107.939 8.5441 108.363 9.33286C108.789 10.1224 109.001 11.0658 109.001 12.1639V24.6163H104.145V22.0565H104.001C103.705 22.6331 103.308 23.1406 102.811 23.5765C102.314 24.0141 101.717 24.3544 101.02 24.5984C100.323 24.8425 99.5176 24.9645 98.6037 24.9645L98.6052 24.9637ZM100.071 21.4302C100.824 21.4302 101.49 21.2794 102.066 20.9794C102.643 20.6795 103.095 20.2723 103.424 19.7594C103.753 19.2473 103.918 18.6652 103.918 18.0163V16.0572C103.757 16.1613 103.538 16.2562 103.262 16.3401C102.986 16.4248 102.675 16.5009 102.33 16.5685C101.985 16.6362 101.641 16.6968 101.296 16.7488C100.952 16.8009 100.64 16.8475 100.359 16.8879C99.7585 16.9758 99.2339 17.1164 98.7848 17.3084C98.3356 17.5003 97.9874 17.7591 97.7388 18.0831C97.4909 18.408 97.3665 18.8105 97.3665 19.2915C97.3665 19.9886 97.6206 20.5194 98.1297 20.8846C98.6387 21.2491 99.2852 21.4309 100.07 21.4309L100.071 21.4302Z" fill="#040035"/>
</svg>
