<svg width="18" height="21" viewBox="0 0 18 21" fill="none" xmlns="http://www.w3.org/2000/svg">
<path fill-rule="evenodd" clip-rule="evenodd" d="M2.63609 2.91333C-0.878612 6.42797 -0.87871 12.1264 2.63588 15.6411L6.87998 19.8842C8.05158 21.0547 9.94942 21.0547 11.1208 19.8845L15.3641 15.6412C18.8787 12.1264 18.8786 6.42797 15.3639 2.91333C11.8492 -0.601318 6.1508 -0.601318 2.63609 2.91333ZM13.9497 4.32755C16.6834 7.06117 16.6834 11.4933 13.9499 14.227L9.70689 18.4699C9.31681 18.8596 8.68419 18.8596 8.29375 18.4696L4.05002 14.2269C1.31656 11.4933 1.31664 7.06117 4.05029 4.32755C6.78396 1.59394 11.216 1.59394 13.9497 4.32755ZM9 5.27705C6.79086 5.27705 5 7.06791 5 9.27705C5 11.4862 6.79086 13.2771 9 13.2771C11.2091 13.2771 13 11.4862 13 9.27705C13 7.06791 11.2091 5.27705 9 5.27705ZM9 7.27705C10.1046 7.27705 11 8.17248 11 9.27705C11 10.3816 10.1046 11.2771 9 11.2771C7.89543 11.2771 7 10.3816 7 9.27705C7 8.17248 7.89543 7.27705 9 7.27705Z" fill="#0A0222"/>
</svg>
