<svg width="15" height="14" viewBox="0 0 15 14" fill="none" xmlns="http://www.w3.org/2000/svg">
<path fill-rule="evenodd" clip-rule="evenodd" d="M11.1876 13.7967V13.7967C11.0751 13.7972 10.9641 13.7706 10.864 13.7194L7.27713 11.8415L3.69022 13.7194V13.7194C3.34642 13.9001 2.92116 13.768 2.74038 13.4242C2.66772 13.286 2.6431 13.1276 2.67041 12.9738L3.37373 9.01417L0.476064 6.20091H0.476064C0.291835 6.01706 0.224195 5.7465 0.300235 5.49759L0.300235 5.49759C0.383398 5.24258 0.604365 5.05708 0.869921 5.01933L4.87882 4.43558L6.64414 0.827572V0.827572C6.81346 0.477985 7.23411 0.331844 7.5837 0.501156C7.72613 0.570139 7.84113 0.685142 7.91011 0.827572L9.69654 4.42855L13.7054 5.0123V5.0123C13.971 5.05005 14.192 5.23555 14.2751 5.49056V5.49056C14.3512 5.73947 14.2835 6.01003 14.0993 6.19387L11.2016 9.00714L11.9049 12.9668V12.9668C11.9562 13.236 11.8464 13.5105 11.6236 13.6701V13.6701C11.4963 13.7594 11.3429 13.8039 11.1876 13.7967L11.1876 13.7967Z" fill="#EF1FCC"/>
</svg>
