<svg width="22" height="22" viewBox="0 0 22 22" fill="none" xmlns="http://www.w3.org/2000/svg">
<path fill-rule="evenodd" clip-rule="evenodd" d="M11 5.75C8.9288 5.75 7.25003 7.42941 7.25003 9.5007C7.25003 11.572 8.9288 13.2514 11 13.2514C13.0713 13.2514 14.75 11.572 14.75 9.5007C14.75 7.42941 13.0713 5.75 11 5.75ZM8.75003 9.5007C8.75003 8.25751 9.75756 7.25 11 7.25C12.2425 7.25 13.25 8.25751 13.25 9.5007C13.25 10.7439 12.2425 11.7514 11 11.7514C9.75756 11.7514 8.75003 10.7439 8.75003 9.5007Z" fill="#383F45"/>
<path fill-rule="evenodd" clip-rule="evenodd" d="M0.25 11C0.25 5.06294 5.06294 0.25 11 0.25C16.9371 0.25 21.75 5.06294 21.75 11C21.75 16.9371 16.9371 21.75 11 21.75C5.06294 21.75 0.25 16.9371 0.25 11ZM11 1.75C5.89137 1.75 1.75 5.89137 1.75 11C1.75 13.7122 2.91729 16.1518 4.77688 17.8437C6.13976 15.9317 8.54219 15.0424 10.9799 15.0424C13.4268 15.0424 15.8393 15.939 17.1988 17.8658C19.0725 16.173 20.25 13.724 20.25 11C20.25 5.89137 16.1086 1.75 11 1.75ZM11 20.25C9.1436 20.25 7.41493 19.7031 5.96629 18.7617C6.96508 17.3278 8.83183 16.5424 10.9799 16.5424C13.1371 16.5424 15.0096 17.3339 16.0059 18.7797C14.563 19.7101 12.8445 20.25 11 20.25Z" fill="#383F45"/>
</svg>
